# xmcd
#
# Track frame offsets:
#	150
#	18384
#	38083
#	59685
#	77579
#	98506
#	117214
#	136184
#	159765
#	179082
#	199700
#	222841
#
# Disc length: 3251 seconds
#
# Revision: 851979
# Processed by: cddbd v1.5.2PL0 Copyright (c) Steve Scherf et al.
# Submitted via: EZCDAudioConverter 8.0.2.1
#
DISCID=980cb10c
DTITLE=Dương Triệu Vũ - Còn Mãi Nồng Nàn
DYEAR=2012
DGENRE=World Pop
TTITLE0=Yêu mãi yêu
TTITLE1=Còn mãi nồng nàn (Ballad Version)
TTITLE2=Mộng mị
TTITLE3=Kể từ đêm đó
TTITLE4=Tập quên em
TTITLE5=Muốn gần bên em
TTITLE6=Cơn mơ
TTITLE7=Chiều phủ Tây Hồ
TTITLE8=Trái tim anh tan nát vì em
TTITLE9=Còn mãi nồng nàn (Rnb Version)
TTITLE10=Tỉnh mộng (Remix)
TTITLE11=Căn phòng (Remix)
EXTD=
EXTT0=
EXTT1=
EXTT2=
EXTT3=
EXTT4=
EXTT5=
EXTT6=
EXTT7=
EXTT8=
EXTT9=
EXTT10=
EXTT11=
PLAYORDER=
